<svg width="293" height="104" viewBox="0 0 293 104" fill="none" xmlns="http://www.w3.org/2000/svg">
<ellipse cx="25.8145" cy="91" rx="13.6665" ry="13" fill="#FF9F9F"/>
<ellipse cx="278.898" cy="91" rx="13.6665" ry="13" fill="#F257FF"/>
<ellipse cx="228.281" cy="91" rx="13.6665" ry="13" fill="#B455FF"/>
<ellipse cx="177.664" cy="91" rx="13.6665" ry="13" fill="#6BDCFF"/>
<ellipse cx="127.048" cy="91" rx="13.6665" ry="13" fill="#95FF70"/>
<ellipse cx="76.4311" cy="91" rx="13.6665" ry="13" fill="#FBE260"/>
<path d="M48.2756 25.0568L42.0434 31.2257C38.0996 27.0499 33.5019 24.9619 28.2504 24.9619C23.6738 24.9619 19.8354 26.4804 16.7351 29.5174C13.6559 32.5544 12.1164 36.2452 12.1164 40.5898C12.1164 45.082 13.7192 48.8888 16.9249 52.0102C20.1307 55.1315 24.0851 56.6922 28.7882 56.6922C31.8463 56.6922 34.4193 56.049 36.5072 54.7625C38.6163 53.476 40.314 51.4618 41.6005 48.7201H28.1239V40.4H51.5341L51.5973 42.3614C51.5973 46.4318 50.5428 50.2913 48.4338 53.9399C46.3248 57.5886 43.5936 60.3725 40.2402 62.2917C36.8869 64.2109 32.9535 65.1705 28.4402 65.1705C23.6105 65.1705 19.2976 64.1265 15.5013 62.0386C11.7262 59.9296 8.73137 56.9348 6.51689 53.0542C4.3235 49.1735 3.22681 44.9871 3.22681 40.4949C3.22681 34.3365 5.26202 28.9796 9.33244 24.4241C14.1621 19.0039 20.447 16.2938 28.1871 16.2938C32.2365 16.2938 36.0222 17.0425 39.5442 18.5399C42.518 19.8054 45.4284 21.9777 48.2756 25.0568ZM94.233 49.2895H66.4887C66.8894 51.736 67.9545 53.6869 69.6839 55.1421C71.4344 56.5762 73.6594 57.2933 76.359 57.2933C79.5858 57.2933 82.3591 56.165 84.6791 53.9083L91.9552 57.3249C90.1415 59.8979 87.9692 61.8066 85.4383 63.0509C82.9075 64.2742 79.9021 64.8858 76.4222 64.8858C71.0231 64.8858 66.6258 63.188 63.2303 59.7925C59.8347 56.3759 58.137 52.1051 58.137 46.9802C58.137 41.7287 59.8242 37.3735 63.1986 33.9147C66.5942 30.4348 70.8439 28.6949 75.9477 28.6949C81.3679 28.6949 85.7758 30.4348 89.1713 33.9147C92.5668 37.3735 94.2646 41.9501 94.2646 47.6445L94.233 49.2895ZM85.5649 42.4879C84.9954 40.5687 83.8671 39.008 82.1799 37.8059C80.5138 36.6038 78.5734 36.0027 76.359 36.0027C73.9547 36.0027 71.8457 36.6776 70.0319 38.0273C68.893 38.871 67.8385 40.3578 66.8684 42.4879H85.5649ZM123.297 34.3893L117.951 39.7357C115.778 37.5844 113.806 36.5088 112.035 36.5088C111.065 36.5088 110.305 36.7197 109.757 37.1416C109.209 37.5423 108.935 38.0484 108.935 38.6601C108.935 39.124 109.103 39.5564 109.441 39.9571C109.799 40.3367 110.664 40.864 112.035 41.5389L115.198 43.1206C118.531 44.7657 120.819 46.4424 122.063 48.1507C123.308 49.859 123.93 51.8626 123.93 54.1614C123.93 57.2195 122.801 59.7714 120.545 61.8172C118.309 63.8629 115.304 64.8858 111.529 64.8858C106.509 64.8858 102.502 62.9244 99.5072 59.0016L104.822 53.2123C105.834 54.3934 107.015 55.353 108.365 56.0912C109.736 56.8082 110.949 57.1668 112.003 57.1668C113.142 57.1668 114.059 56.8926 114.755 56.3442C115.451 55.7959 115.799 55.1632 115.799 54.4461C115.799 53.1174 114.545 51.8204 112.035 50.555L109.124 49.0997C103.557 46.2947 100.773 42.7832 100.773 38.5651C100.773 35.8445 101.817 33.5246 103.905 31.6054C106.014 29.6651 108.703 28.6949 111.972 28.6949C114.207 28.6949 116.306 29.1905 118.267 30.1818C120.249 31.1519 121.926 32.5544 123.297 34.3893ZM140.308 29.5807V33.3769C141.869 31.8163 143.556 30.6458 145.37 29.8654C147.183 29.0851 149.124 28.6949 151.191 28.6949C155.683 28.6949 159.5 30.3927 162.643 33.7882C165.785 37.1837 167.356 41.5389 167.356 46.8536C167.356 51.9786 165.732 56.2704 162.484 59.7292C159.237 63.1669 155.388 64.8858 150.938 64.8858C148.955 64.8858 147.11 64.5378 145.401 63.8418C143.693 63.1248 141.995 61.9648 140.308 60.3619V76.5909H131.735V29.5807H140.308ZM149.387 36.667C146.667 36.667 144.41 37.595 142.617 39.4509C140.825 41.3069 139.928 43.7323 139.928 46.7271C139.928 49.7852 140.825 52.2633 142.617 54.1614C144.41 56.0384 146.667 56.9769 149.387 56.9769C152.024 56.9769 154.238 56.0173 156.031 54.0981C157.845 52.1789 158.751 49.7324 158.751 46.7587C158.751 43.8061 157.866 41.3912 156.094 39.5142C154.322 37.6161 152.087 36.667 149.387 36.667ZM200.913 29.5807H209.517V64H200.913V60.3619C199.225 61.9648 197.528 63.1248 195.819 63.8418C194.132 64.5378 192.297 64.8858 190.315 64.8858C185.865 64.8858 182.016 63.1669 178.768 59.7292C175.52 56.2704 173.896 51.9786 173.896 46.8536C173.896 41.5389 175.467 37.1837 178.61 33.7882C181.752 30.3927 185.569 28.6949 190.062 28.6949C192.128 28.6949 194.069 29.0851 195.883 29.8654C197.696 30.6458 199.373 31.8163 200.913 33.3769V29.5807ZM191.833 36.667C189.155 36.667 186.93 37.6161 185.158 39.5142C183.387 41.3912 182.501 43.8061 182.501 46.7587C182.501 49.7324 183.397 52.1789 185.19 54.0981C187.004 56.0173 189.229 56.9769 191.865 56.9769C194.585 56.9769 196.842 56.0384 198.635 54.1614C200.427 52.2633 201.324 49.7852 201.324 46.7271C201.324 43.7323 200.427 41.3069 198.635 39.4509C196.842 37.595 194.575 36.667 191.833 36.667ZM222.606 15.408C224.124 15.408 225.421 15.9564 226.497 17.0531C227.593 18.1498 228.142 19.4785 228.142 21.0391C228.142 22.5787 227.604 23.8969 226.528 24.9936C225.453 26.0692 224.166 26.607 222.669 26.607C221.129 26.607 219.811 26.0586 218.714 24.9619C217.639 23.8441 217.101 22.4944 217.101 20.9126C217.101 19.3941 217.639 18.097 218.714 17.0214C219.79 15.9458 221.087 15.408 222.606 15.408ZM218.272 29.5807H226.94V64H218.272V29.5807ZM235.757 29.5807H244.362V33.0922C246.323 31.4472 248.095 30.3083 249.677 29.6756C251.279 29.0218 252.914 28.6949 254.58 28.6949C257.997 28.6949 260.897 29.8865 263.28 32.2697C265.283 34.2944 266.285 37.2892 266.285 41.2542V64H257.744V48.9099C257.744 44.7973 257.554 42.0661 257.174 40.7164C256.816 39.3666 256.172 38.3437 255.244 37.6477C254.338 36.9306 253.209 36.5721 251.859 36.5721C250.109 36.5721 248.601 37.1626 247.336 38.3437C246.091 39.5037 245.227 41.1171 244.741 43.1839C244.488 44.2595 244.362 46.59 244.362 50.1753V64H235.757V29.5807ZM276.684 16.8949H285.289V29.5807H290.414V37.015H285.289V64H276.684V37.015H272.255V29.5807H276.684V16.8949Z" fill="#1D4B73"/>
</svg>
